<svg width="60" height="65" viewBox="0 0 60 65" fill="none" xmlns="http://www.w3.org/2000/svg">
<path d="M58.9369 2.41601L57.7698 1.15172C57.0891 0.414289 56.1659 0 55.2032 0C54.2405 0 53.3173 0.414289 52.6366 1.15172L30 25.6747L7.3634 1.15172C6.68269 0.414289 5.75945 0 4.79678 0C3.83412 0 2.91088 0.414289 2.23017 1.15172L1.06313 2.41601C0.726077 2.78115 0.458711 3.21464 0.276299 3.69172C0.0938871 4.1688 0 4.68013 0 5.19652C0 5.7129 0.0938871 6.22424 0.276299 6.70132C0.458711 7.1784 0.726077 7.61188 1.06313 7.97702L23.6997 32.5L1.06313 57.023C0.726077 57.3881 0.458711 57.8216 0.276299 58.2987C0.0938871 58.7758 0 59.2871 0 59.8035C0 60.3199 0.0938871 60.8312 0.276299 61.3083C0.458711 61.7854 0.726077 62.2188 1.06313 62.584L2.23017 63.8483C2.91088 64.5857 3.83412 65 4.79678 65C5.75945 65 6.68269 64.5857 7.3634 63.8483L30 39.3253L52.6366 63.8483C53.3173 64.5857 54.2405 65 55.2032 65C56.1659 65 57.0891 64.5857 57.7698 63.8483L58.9369 62.584C59.6176 61.8465 60 60.8464 60 59.8035C60 58.7606 59.6176 57.7604 58.9369 57.023L36.3003 32.5L58.9369 7.97702C59.6176 7.23958 60 6.23941 60 5.19652C60 4.15363 59.6176 3.15345 58.9369 2.41601Z" fill="#FF6584"/>
</svg>
