<svg width="1319" height="1144" viewBox="0 0 1319 1144" fill="none" xmlns="http://www.w3.org/2000/svg">
<path d="M913.429 786.475C1074.8 913.574 1279.3 823.037 1313.7 784.889L801.117 0.372711L8.54921 347.311C9.56355 361.561 28.7737 408.74 97.4995 483.45C183.407 576.838 353.924 684.494 476.466 660.781C761.837 605.559 700.911 619.095 913.429 786.475Z" fill="url(#paint0_linear)"/>
<path fill-rule="evenodd" clip-rule="evenodd" d="M1089.53 462.382C1087 462.382 1084.55 462.693 1082.25 463.264C1078.05 448.777 1062.14 438 1043.16 438C1024.29 438 1008.46 448.645 1004.15 462.996C1002.2 462.597 1000.16 462.382 998.054 462.382C984.217 462.382 973 471.564 973 482.889C973 494.215 984.217 503.396 998.054 503.396H1037.03C1039.03 503.646 1041.07 503.776 1043.16 503.776C1045.24 503.776 1047.29 503.646 1049.29 503.396H1089.53C1103.36 503.396 1114.58 494.215 1114.58 482.889C1114.58 471.564 1103.36 462.382 1089.53 462.382Z" fill="#DDEEFB"/>
<path fill-rule="evenodd" clip-rule="evenodd" d="M732.528 344.382C729.997 344.382 727.554 344.693 725.251 345.264C721.05 330.777 705.143 320 686.158 320C667.292 320 651.465 330.645 647.146 344.996C645.195 344.597 643.155 344.382 641.054 344.382C627.217 344.382 616 353.564 616 364.889C616 376.215 627.217 385.396 641.054 385.396H680.031C682.029 385.646 684.075 385.776 686.158 385.776C688.242 385.776 690.288 385.646 692.286 385.396H732.528C746.364 385.396 757.58 376.215 757.58 364.889C757.58 353.564 746.364 344.382 732.528 344.382Z" fill="#DDEEFB"/>
<path fill-rule="evenodd" clip-rule="evenodd" d="M622.205 532.784C621.397 532.784 620.617 532.883 619.882 533.066C618.54 528.441 613.462 525 607.4 525C601.376 525 596.323 528.398 594.944 532.98C594.321 532.853 593.67 532.784 592.999 532.784C588.581 532.784 585 535.716 585 539.331C585 542.947 588.581 545.879 592.999 545.879H605.444C606.082 545.958 606.735 546 607.4 546C608.065 546 608.719 545.958 609.357 545.879H622.205C626.623 545.879 630.204 542.947 630.204 539.331C630.204 535.716 626.623 532.784 622.205 532.784Z" fill="#DDEEFB"/>
<path fill-rule="evenodd" clip-rule="evenodd" d="M1065.21 712.784C1064.4 712.784 1063.62 712.883 1062.88 713.066C1061.54 708.441 1056.46 705 1050.4 705C1044.38 705 1039.32 708.398 1037.94 712.98C1037.32 712.853 1036.67 712.784 1036 712.784C1031.58 712.784 1028 715.716 1028 719.331C1028 722.947 1031.58 725.879 1036 725.879H1048.44C1049.08 725.958 1049.73 726 1050.4 726C1051.07 726 1051.72 725.958 1052.36 725.879H1065.21C1069.62 725.879 1073.2 722.947 1073.2 719.331C1073.2 715.716 1069.62 712.784 1065.21 712.784Z" fill="#DDEEFB"/>
<path fill-rule="evenodd" clip-rule="evenodd" d="M224.799 500.005C224.137 500.005 223.499 500.104 222.897 500.286C221.799 495.661 217.642 492.22 212.681 492.22C207.75 492.22 203.614 495.619 202.486 500.201C201.976 500.073 201.443 500.005 200.894 500.005C197.278 500.005 194.346 502.936 194.346 506.552C194.346 510.168 197.278 513.099 200.894 513.099H211.08C211.602 513.179 212.137 513.22 212.681 513.22C213.225 513.22 213.76 513.179 214.282 513.099H224.799C228.415 513.099 231.346 510.168 231.346 506.552C231.346 502.936 228.415 500.005 224.799 500.005Z" fill="#DDEEFB"/>
<path fill-rule="evenodd" clip-rule="evenodd" d="M394.001 424.784C393.193 424.784 392.413 424.883 391.678 425.066C390.336 420.441 385.258 417 379.196 417C373.173 417 368.119 420.398 366.74 424.98C366.118 424.853 365.466 424.784 364.795 424.784C360.378 424.784 356.796 427.716 356.796 431.331C356.796 434.947 360.378 437.879 364.795 437.879H377.24C377.878 437.958 378.531 438 379.196 438C379.862 438 380.515 437.958 381.153 437.879H394.001C398.419 437.879 402 434.947 402 431.331C402 427.716 398.419 424.784 394.001 424.784Z" fill="#DDEEFB"/>
<defs>
<linearGradient id="paint0_linear" x1="400.558" y1="175.713" x2="775.007" y2="1031.13" gradientUnits="userSpaceOnUse">
<stop stop-color="#0470DC"/>
<stop offset="1" stop-color="#13F1FC"/>
</linearGradient>
</defs>
</svg>
