<svg width="83" height="148" viewBox="0 0 83 148" fill="none" xmlns="http://www.w3.org/2000/svg">
<path d="M41.7763 0C52.6826 0 63.1423 4.33281 70.8542 12.0453C78.5662 19.7577 82.8987 30.2181 82.8987 41.1251C82.8987 63.836 39.8122 147.621 39.8122 147.621C39.8122 147.621 0.653931 63.8483 0.653931 41.1313C0.653125 35.7301 1.71621 30.3817 3.78244 25.3915C5.84867 20.4012 8.87757 15.8669 12.6962 12.0474C16.5149 8.22797 21.0484 5.19817 26.038 3.13105C31.0276 1.06394 36.3755 -6.01598e-08 41.7763 0ZM41.7763 68.5501C46.0372 68.5501 50.2023 67.2865 53.7451 64.9191C57.2878 62.5518 60.0491 59.1869 61.6796 55.2502C63.3102 51.3134 63.7368 46.9815 62.9056 42.8022C62.0743 38.623 60.0225 34.7841 57.0097 31.771C53.9968 28.758 50.1581 26.706 45.9792 25.8747C41.8002 25.0434 37.4686 25.4701 33.5321 27.1007C29.5956 28.7314 26.231 31.4928 23.8638 35.0358C21.4966 38.5788 20.2331 42.7443 20.2331 47.0054C20.2331 49.8347 20.7903 52.6363 21.873 55.2502C22.9556 57.8641 24.5425 60.2392 26.5429 62.2398C28.5434 64.2404 30.9183 65.8273 33.5321 66.9101C36.1458 67.9928 38.9472 68.5501 41.7763 68.5501Z" fill="#34cd79"/>
</svg>
